<svg width="189" height="39" viewBox="0 0 189 39" fill="none" xmlns="http://www.w3.org/2000/svg">
<g id="Group">
<g id="Group_2">
<g id="Group_3">
<g id="Group_4">
<path id="Vector" d="M177.101 5.79321H172.934V15.0442H177.101V5.79321Z" fill="#8B5E3C"/>
</g>
</g>
<g id="Group_5">
<g id="Group_6">
<path id="Vector_2" d="M3.35104 9.29814C6.51804 6.63114 13.684 5.96515 17.684 6.13115C25.518 6.46415 33.184 8.46414 41.018 8.46414C47.018 8.46414 53.018 8.29715 58.851 7.13115C61.185 6.63115 63.351 5.63114 65.851 5.46414C73.351 4.79714 80.518 6.96415 87.851 7.79715C92.685 8.29715 97.851 8.79714 102.518 7.63014C106.351 6.63014 109.685 4.63014 113.351 3.63014C120.684 1.46314 127.684 4.79715 135.018 4.96315C139.018 4.96315 142.185 4.63015 145.685 2.29614C148.018 0.629145 151.185 -0.370847 154.018 0.129153C158.851 1.29615 163.518 3.96215 168.185 5.46215C170.352 6.12915 173.352 5.96215 175.852 5.79515C178.519 5.46215 181.352 3.12814 183.853 5.29614C187.315 8.22715 189.739 16.7921 187.486 20.9021C184.358 26.6081 174.254 23.0391 169.732 21.3311C166.2 19.9961 162.185 19.9662 158.478 19.0822C154.27 18.0792 149.994 18.2941 145.691 18.2941C143.923 18.2941 141.925 18.0231 140.177 18.2861C138.664 18.5142 137.318 19.4552 135.807 19.7562C131.054 20.7042 125.541 19.8182 120.927 18.6682C115.275 17.2602 109.471 18.4711 103.69 18.4601C99.592 18.4521 97.37 20.6002 93.533 21.0802C89.238 21.6182 85.777 20.1692 81.654 19.6272C76.976 19.0122 72.234 19.7941 67.55 19.7921C65.405 19.7921 63.93 19.3112 61.903 18.9932C59.914 18.6812 57.676 18.9592 55.665 18.9592C50.577 18.9592 45.521 19.1982 40.432 18.9502C37.612 18.8132 34.755 18.9592 31.93 18.9592C29.888 18.9592 26.265 18.2201 24.474 19.3351C23.296 20.0681 23.301 21.2172 21.88 21.8752C19.8 22.8392 16.72 22.9901 14.426 23.1351C12.484 23.2571 8.47704 23.8811 6.89004 25.1631C5.57604 26.2251 4.96903 29.7522 4.71503 31.3962C4.36003 33.6931 4.85403 35.5392 3.14503 37.4222C2.69503 37.9182 2.17704 39.0152 1.00304 38.3042C0.360036 37.9152 -0.0039646 36.2661 0.0040354 35.5031C0.0150354 34.2891 0.652038 33.2321 0.528037 31.9211C0.343037 29.9651 0.695034 29.4372 1.19403 27.4422C1.60303 25.8032 0.641037 24.0112 0.410037 22.3992C0.206037 20.9812 0.258036 19.5632 0.412036 18.1382C0.674036 15.6942 1.30904 11.0171 3.35104 9.29814Z" fill="#EBF5FB"/>
</g>
<path id="Vector_3" d="M187.484 20.9061C189.161 17.8461 188.245 12.3201 186.24 8.48511C187.291 17.2041 176.432 15.2561 165.059 14.4841C153.684 13.7111 143.309 12.7571 129.934 12.7571C116.559 12.7571 101.684 13.8821 93.5591 15.6321C85.4341 17.3821 68.6841 15.8821 48.5591 13.5071C28.4341 11.1321 23.8091 14.3821 12.6841 17.7571C1.5611 21.1311 2.3421 10.5501 2.3421 10.5471C1.0841 12.6971 0.624096 16.1551 0.408096 18.1461C0.254096 19.5711 0.202097 20.9891 0.406097 22.4071C0.637097 24.0191 1.5991 25.8111 1.1901 27.4501C0.691098 29.4451 0.340097 29.9731 0.524097 31.9291C0.648097 33.2391 0.0110991 34.2971 9.91357e-05 35.5111C-0.00690086 36.2741 0.357096 37.9231 0.999096 38.3121C2.1731 39.0231 2.6911 37.9251 3.1411 37.4301C4.8501 35.5471 4.3561 33.7011 4.7111 31.4041C4.9651 29.7601 5.5721 26.2331 6.8861 25.1711C8.4731 23.8881 12.4791 23.2651 14.4221 23.1431C16.7161 22.9981 19.7971 22.8471 21.8761 21.8831C23.2961 21.2251 23.2921 20.0761 24.4701 19.3431C26.2611 18.2291 29.8841 18.9671 31.9261 18.9671C34.7511 18.9671 37.6091 18.8211 40.4281 18.9581C45.5161 19.2061 50.5731 18.9671 55.6611 18.9671C57.6711 18.9671 59.9101 18.6891 61.8991 19.0011C63.9261 19.3191 65.4011 19.8001 67.5461 19.8001C72.2301 19.8011 76.9721 19.0201 81.6501 19.6351C85.7731 20.1771 89.2341 21.6251 93.5291 21.0881C97.3661 20.6081 99.5891 18.4601 103.686 18.4681C109.467 18.4791 115.271 17.2671 120.923 18.6761C125.537 19.8251 131.05 20.7121 135.803 19.7641C137.314 19.4631 138.66 18.5221 140.173 18.2941C141.921 18.0311 143.919 18.3021 145.687 18.3021C149.989 18.3021 154.266 18.0871 158.474 19.0901C162.181 19.9731 166.196 20.0041 169.728 21.3391C174.252 23.0431 184.356 26.6111 187.484 20.9061Z" fill="#C6E2F1"/>
<path id="Vector_4" d="M160.434 6.5062C165.841 9.0972 181.697 11.3792 182.858 4.6702C180.615 3.7082 178.17 5.50819 175.85 5.79819C173.35 5.96519 170.35 6.1312 168.183 5.4652C163.516 3.9652 158.85 1.2982 154.016 0.132204C151.183 -0.367796 148.016 0.632196 145.683 2.2992C142.183 4.6322 139.016 4.9662 135.016 4.9662C127.683 4.7992 120.683 1.4662 113.349 3.6332C109.682 4.6332 106.349 6.6332 102.516 7.6332C97.849 8.8002 92.683 8.3002 87.849 7.8002C80.516 6.9672 73.349 4.8002 65.849 5.4672C63.349 5.6342 61.183 6.6342 58.849 7.1342C53.016 8.3012 47.016 8.4672 41.016 8.4672C33.182 8.4672 25.516 6.4672 17.682 6.1342C15.706 6.0522 12.958 6.17419 10.301 6.63919C10.706 9.00119 12.367 11.8632 18.182 11.2592C27.807 10.2592 41.307 10.0482 50.182 11.3412C59.057 12.6342 74.557 11.6342 82.932 10.7592C91.307 9.8842 107.432 10.5092 113.307 9.3842C119.182 8.2592 127.307 7.84119 137.432 8.48819C147.559 9.13119 154.434 3.6312 160.434 6.5062Z" fill="white"/>
</g>
</g>
</g>
</svg>
